<svg width="11" height="8" viewBox="0 0 11 8" fill="none" xmlns="http://www.w3.org/2000/svg">
<path d="M5.3908 8C5.1158 8 4.88047 7.90217 4.6848 7.7065C4.48914 7.51083 4.39114 7.27533 4.3908 7C4.39047 6.72467 4.48847 6.48933 4.6848 6.294C4.88114 6.09867 5.11647 6.00067 5.3908 6C5.66514 5.99933 5.90064 6.09733 6.0973 6.294C6.29397 6.49067 6.3918 6.726 6.3908 7C6.3898 7.274 6.29197 7.5095 6.0973 7.7065C5.90264 7.9035 5.66714 8.00133 5.3908 8ZM3.1658 3.5L1.7908 2.5375C1.70747 2.5875 1.6283 2.63967 1.5533 2.694C1.4783 2.74833 1.4033 2.8045 1.3283 2.8625C1.16164 2.99583 0.972138 3.0605 0.759804 3.0565C0.547471 3.0525 0.366138 2.97533 0.215804 2.825C0.0741377 2.68333 0.0033044 2.50833 0.0033044 2.3C0.0033044 2.09167 0.0866377 1.925 0.253304 1.8C0.294971 1.76667 0.334638 1.7375 0.372304 1.7125C0.409971 1.6875 0.449471 1.65833 0.490804 1.625L0.265804 1.475C0.124138 1.375 0.0388044 1.24167 0.0098044 1.075C-0.0191956 0.908333 0.0161377 0.754167 0.115804 0.6125C0.215471 0.470833 0.350971 0.383333 0.522304 0.35C0.693638 0.316667 0.849804 0.35 0.990804 0.45L9.7908 6.625C9.93247 6.725 10.02 6.85833 10.0533 7.025C10.0866 7.19167 10.0533 7.34583 9.9533 7.4875C9.8533 7.62917 9.71797 7.71467 9.5473 7.744C9.37664 7.77333 9.2203 7.73783 9.0783 7.6375L4.6908 4.5625C4.47414 4.60417 4.2638 4.66467 4.0598 4.744C3.8558 4.82333 3.6578 4.92117 3.4658 5.0375C3.28247 5.15417 3.08664 5.20633 2.8783 5.194C2.66997 5.18167 2.4908 5.10033 2.3408 4.95C2.19914 4.80833 2.1303 4.6355 2.1343 4.4315C2.1383 4.2275 2.2238 4.067 2.3908 3.95C2.5158 3.85833 2.64297 3.777 2.7723 3.706C2.90164 3.635 3.0328 3.56633 3.1658 3.5ZM4.7033 1.5375L3.0158 0.35C3.39914 0.233333 3.7888 0.145833 4.1848 0.0875001C4.5808 0.0291668 4.9828 0 5.3908 0C6.33247 0 7.2408 0.154167 8.1158 0.4625C8.9908 0.770833 9.79497 1.21667 10.5283 1.8C10.695 1.925 10.7783 2.09167 10.7783 2.3C10.7783 2.50833 10.7075 2.68333 10.5658 2.825C10.4158 2.975 10.2345 3.05217 10.0218 3.0565C9.80914 3.06083 9.61964 2.99617 9.4533 2.8625C8.86997 2.4125 8.23247 2.073 7.5408 1.844C6.84914 1.615 6.13247 1.50033 5.3908 1.5C5.27414 1.5 5.15964 1.50217 5.0473 1.5065C4.93497 1.51083 4.8203 1.52117 4.7033 1.5375Z" fill="#C10007"/>
</svg>
