<svg width="12" height="9" viewBox="0 0 12 9" fill="none" xmlns="http://www.w3.org/2000/svg">
<path d="M5.68816 8.5C5.33816 8.5 5.04233 8.37917 4.80066 8.1375C4.55899 7.89583 4.43816 7.6 4.43816 7.25C4.43816 6.9 4.55899 6.60417 4.80066 6.3625C5.04233 6.12083 5.33816 6 5.68816 6C6.03816 6 6.33399 6.12083 6.57566 6.3625C6.81732 6.60417 6.93816 6.9 6.93816 7.25C6.93816 7.6 6.81732 7.89583 6.57566 8.1375C6.33399 8.37917 6.03816 8.5 5.68816 8.5ZM5.68816 3C6.31316 3 6.90699 3.1 7.46966 3.3C8.03232 3.5 8.54266 3.775 9.00066 4.125C9.16733 4.25 9.25282 4.41467 9.25716 4.619C9.26149 4.82333 9.18849 5.00033 9.03816 5.15C8.89649 5.29167 8.72149 5.36467 8.51316 5.369C8.30482 5.37333 8.11732 5.317 7.95066 5.2C7.63399 4.98333 7.28399 4.8125 6.90066 4.6875C6.51732 4.5625 6.11316 4.5 5.68816 4.5C5.26316 4.5 4.85899 4.5625 4.47566 4.6875C4.09232 4.8125 3.74232 4.98333 3.42566 5.2C3.25899 5.31667 3.07149 5.37083 2.86316 5.3625C2.65482 5.35417 2.47982 5.27917 2.33816 5.1375C2.19649 4.9875 2.12566 4.8105 2.12566 4.6065C2.12566 4.4025 2.20899 4.23783 2.37566 4.1125C2.83399 3.7625 3.34449 3.4895 3.90716 3.2935C4.46982 3.0975 5.06349 2.99967 5.68816 3ZM5.68816 0C6.72982 0 7.71116 0.170833 8.63216 0.5125C9.55316 0.854167 10.3802 1.3375 11.1132 1.9625C11.2798 2.10417 11.3673 2.27917 11.3757 2.4875C11.384 2.69583 11.3132 2.875 11.1632 3.025C11.0215 3.16667 10.8465 3.23967 10.6382 3.244C10.4298 3.24833 10.2423 3.18367 10.0757 3.05C9.47566 2.55833 8.80282 2.17717 8.05716 1.9065C7.31149 1.63583 6.52182 1.50033 5.68816 1.5C4.85449 1.49967 4.06499 1.63517 3.31966 1.9065C2.57432 2.17783 1.90132 2.559 1.30066 3.05C1.13399 3.18333 0.946491 3.248 0.738158 3.244C0.529825 3.24 0.354825 3.167 0.213158 3.025C0.0631579 2.875 -0.00767544 2.69583 0.000657895 2.4875C0.00899123 2.27917 0.0964912 2.10417 0.263158 1.9625C0.996491 1.3375 1.82366 0.854167 2.74466 0.5125C3.66566 0.170833 4.64682 0 5.68816 0Z" fill="#008236"/>
</svg>
