<svg width="8" height="8" viewBox="0 0 8 8" fill="none" xmlns="http://www.w3.org/2000/svg">
<path d="M4 8C2.88333 8 1.9375 7.6125 1.1625 6.8375C0.3875 6.0625 0 5.11667 0 4C0 2.88334 0.3875 1.9375 1.1625 1.1625C1.9375 0.387502 2.88333 1.72414e-06 4 1.72414e-06C4.575 1.72414e-06 5.125 0.118668 5.65 0.356002C6.175 0.593335 6.625 0.933002 7 1.375V0.500002C7 0.358335 7.048 0.239668 7.144 0.144002C7.24 0.0483351 7.35867 0.000335057 7.5 1.72414e-06C7.64133 -0.000331609 7.76017 0.0476684 7.8565 0.144002C7.95283 0.240335 8.00067 0.359002 8 0.500002V3C8 3.14167 7.952 3.2605 7.856 3.3565C7.76 3.4525 7.64133 3.50033 7.5 3.5H5C4.85833 3.5 4.73967 3.452 4.644 3.356C4.54833 3.26 4.50033 3.14134 4.5 3C4.49967 2.85867 4.54767 2.74 4.644 2.644C4.74033 2.548 4.859 2.5 5 2.5H6.6C6.33333 2.03333 5.96883 1.66667 5.5065 1.4C5.04417 1.13334 4.542 1 4 1C3.16667 1 2.45833 1.29167 1.875 1.875C1.29167 2.45833 1 3.16667 1 4C1 4.83334 1.29167 5.54167 1.875 6.125C2.45833 6.70834 3.16667 7 4 7C4.56667 7 5.0855 6.85634 5.5565 6.569C6.0275 6.28167 6.392 5.89617 6.65 5.4125C6.71667 5.29584 6.8105 5.21467 6.9315 5.169C7.0525 5.12334 7.17533 5.12117 7.3 5.1625C7.43333 5.20417 7.52917 5.29167 7.5875 5.425C7.64583 5.55834 7.64167 5.68334 7.575 5.8C7.23333 6.46667 6.74583 7 6.1125 7.4C5.47917 7.8 4.775 8 4 8Z" fill="#1447E6"/>
</svg>
